<?xml version="1.0" standalone="no"?>
<!DOCTYPE svg PUBLIC "-//W3C//DTD SVG 20010904//EN"
 "http://www.w3.org/TR/2001/REC-SVG-20010904/DTD/svg10.dtd">
<svg version="1.0" xmlns="http://www.w3.org/2000/svg"
 width="906.000000pt" height="906.000000pt" viewBox="0 0 906.000000 906.000000"
 preserveAspectRatio="xMidYMid meet">
<metadata>
Created by potrace 1.14, written by Peter Selinger 2001-2017
</metadata>
<g transform="translate(0.000000,906.000000) scale(0.100000,-0.100000)"
fill="#000000" stroke="none">
<path d="M4010 8979 c-36 -4 -91 -13 -122 -20 l-58 -12 0 -56 c0 -63 41 -1265
44 -1268 2 -2 300 28 303 31 2 1 -1 103 -6 227 -5 123 -7 227 -4 232 2 4 34 7
71 7 l67 0 62 -83 c50 -68 137 -202 229 -353 11 -19 25 -21 151 -28 76 -3 155
-9 176 -12 28 -5 37 -3 37 7 0 38 -207 375 -298 487 -24 30 -42 55 -40 57 2 1
18 10 35 19 83 42 154 131 178 222 39 151 -7 341 -104 426 -49 43 -163 95
-246 113 -77 16 -360 19 -475 4z m413 -271 c74 -25 111 -84 105 -170 -6 -76
-29 -107 -103 -137 -48 -19 -79 -23 -165 -25 l-105 -1 -3 172 -2 172 37 4 c55
7 198 -2 236 -15z"/>
<path d="M6211 8708 c-5 -13 -68 -167 -141 -343 -226 -547 -350 -853 -350
-864 0 -4 55 -25 123 -46 206 -66 445 -165 625 -261 57 -31 109 -53 116 -51 7
3 17 20 23 38 6 19 29 77 51 129 22 52 39 97 37 100 -2 3 -134 59 -293 125
l-289 118 48 120 c27 66 51 122 54 125 2 2 109 -39 238 -92 128 -53 237 -96
243 -96 7 0 93 197 98 226 2 11 -15 18 -249 113 -121 49 -221 94 -223 100 -2
7 73 205 84 220 4 5 27 -4 259 -99 110 -45 221 -90 246 -100 l46 -19 47 114
c25 63 46 118 46 123 0 9 -11 15 -160 76 -471 193 -651 266 -660 266 -6 0 -14
-10 -19 -22z"/>
<path d="M2341 8557 c-69 -29 -126 -58 -128 -64 -4 -10 489 -1199 501 -1211 2
-2 42 13 88 33 45 20 107 46 136 57 28 11 52 25 52 32 0 27 -499 1201 -512
1203 -7 2 -69 -21 -137 -50z"/>
<path d="M780 7573 c-45 -54 -84 -104 -87 -110 -7 -18 69 -186 226 -498 75
-148 137 -273 139 -276 1 -4 -62 14 -140 39 -183 57 -454 132 -585 162 l-102
23 -24 -29 c-112 -133 -157 -190 -157 -198 0 -24 972 -966 997 -966 6 0 19 19
29 42 10 23 42 82 71 130 l52 88 -162 147 c-214 193 -459 425 -454 429 2 2
158 -44 347 -101 189 -58 349 -105 355 -105 6 0 41 37 78 81 l67 82 -34 61
c-18 33 -89 169 -156 301 -68 132 -132 256 -144 275 l-21 35 30 -19 c41 -26
383 -282 539 -404 l130 -101 35 30 c20 17 70 57 111 91 41 33 79 64 84 68 8 8
-164 139 -569 433 -203 147 -555 387 -568 387 -3 0 -42 -44 -87 -97z"/>
<path d="M4220 7383 c-1139 -86 -2135 -608 -2707 -1419 -563 -797 -636 -1770
-197 -2614 489 -939 1520 -1589 2737 -1726 216 -25 664 -25 887 -1 893 98
1679 467 2256 1058 422 434 680 958 755 1534 15 116 15 444 0 560 -33 253
-110 525 -214 750 -146 317 -316 556 -586 826 -179 177 -307 283 -506 414
-542 358 -1131 554 -1845 615 -106 9 -475 11 -580 3z m730 -358 c1336 -158
2410 -1017 2630 -2105 62 -301 62 -550 0 -850 -173 -851 -880 -1587 -1850
-1925 -624 -218 -1335 -264 -1990 -130 -1201 245 -2127 1063 -2324 2053 -34
167 -46 281 -46 427 0 360 103 745 285 1065 334 588 928 1055 1654 1299 295
100 520 144 936 185 94 9 578 -4 705 -19z"/>
<path d="M4336 5978 c-3 -7 -10 -44 -17 -82 -24 -137 -120 -276 -233 -339
-117 -65 -65 -61 -926 -67 l-785 -6 -90 -27 c-185 -58 -348 -176 -454 -330
-83 -121 -141 -295 -141 -422 l0 -55 164 0 c180 0 176 -2 176 65 0 50 34 148
70 205 68 106 195 193 318 219 36 7 284 11 766 11 595 0 728 3 801 15 167 29
326 115 448 243 l67 70 33 -40 c84 -106 263 -218 414 -260 76 -22 96 -22 858
-28 778 -5 780 -6 840 -28 169 -63 291 -209 317 -378 6 -38 12 -75 14 -81 3
-10 45 -13 169 -13 l165 0 0 48 c0 83 -36 224 -78 313 -106 220 -300 382 -537
450 -79 23 -85 23 -860 29 -864 6 -815 2 -934 74 -120 73 -200 195 -224 341
l-13 80 -162 3 c-125 2 -163 0 -166 -10z"/>
<path d="M2700 4495 l0 -165 495 0 495 0 0 165 0 165 -495 0 -495 0 0 -165z"/>
<path d="M5310 4495 l0 -165 495 0 495 0 0 165 0 165 -495 0 -495 0 0 -165z"/>
<path d="M1693 4253 c22 -334 272 -629 612 -724 79 -22 92 -23 860 -29 873 -6
823 -2 942 -80 113 -75 183 -182 213 -328 l17 -87 163 0 164 0 13 80 c24 143
99 261 217 337 117 76 71 72 941 78 769 6 781 7 859 29 199 56 365 177 484
353 72 105 132 295 132 414 l0 44 -165 0 c-124 0 -166 -3 -169 -12 -2 -7 -8
-44 -14 -82 -15 -94 -63 -188 -131 -256 -72 -71 -132 -106 -228 -130 -72 -19
-114 -20 -800 -20 -621 0 -735 -2 -801 -16 -165 -34 -306 -110 -427 -229 l-81
-80 -33 40 c-91 110 -258 215 -408 257 -76 22 -96 22 -858 28 -773 5 -781 6
-839 28 -75 28 -120 56 -179 111 -81 76 -147 208 -147 297 0 66 4 64 -178 64
l-165 0 6 -87z"/>
<path d="M8335 7166 c-280 -71 -377 -100 -882 -267 -189 -62 -343 -116 -343
-121 0 -5 17 -23 38 -41 20 -18 74 -67 119 -109 l81 -78 44 16 c107 39 436
154 685 239 l272 94 -78 -122 c-43 -67 -168 -263 -279 -435 -111 -172 -202
-318 -202 -324 0 -6 22 -47 49 -92 26 -44 63 -109 81 -143 18 -35 36 -60 40
-58 11 7 254 392 357 565 128 216 194 333 291 519 l91 174 -31 41 c-81 103
-150 186 -156 185 -4 0 -83 -19 -177 -43z"/>
<path d="M139 5313 c-31 -73 -85 -276 -111 -420 -20 -113 -22 -161 -22 -398 0
-236 2 -286 22 -395 27 -151 71 -323 104 -405 l24 -60 177 -3 c121 -2 177 1
177 8 0 6 -6 23 -14 38 -27 53 -88 239 -111 342 -70 308 -73 593 -9 907 23
112 79 295 118 384 8 20 12 39 9 43 -4 3 -82 6 -175 6 l-169 0 -20 -47z"/>
<path d="M8493 5343 c3 -10 24 -66 46 -124 45 -120 82 -259 108 -404 24 -139
24 -499 -1 -640 -29 -168 -78 -346 -132 -477 -13 -32 -24 -60 -24 -63 0 -3 80
-4 177 -3 l177 3 24 60 c33 83 87 299 109 435 25 163 25 567 0 730 -22 136
-76 352 -109 435 l-24 60 -178 3 c-167 2 -178 1 -173 -15z"/>
<path d="M765 2504 c-247 -234 -461 -436 -474 -449 l-24 -24 108 -115 c59 -64
110 -116 114 -116 3 0 139 126 301 280 162 153 296 275 298 270 6 -16 -28
-297 -57 -471 -17 -96 -49 -256 -72 -356 l-42 -182 88 -93 c48 -51 93 -93 100
-93 18 0 965 896 965 912 0 7 -9 17 -20 23 -11 6 -65 46 -120 90 -55 44 -103
80 -107 80 -5 0 -127 -112 -273 -249 -146 -137 -266 -248 -268 -247 -1 2 2 25
7 52 49 260 91 630 91 807 l0 109 -43 56 c-24 31 -56 76 -72 100 -15 23 -33
42 -39 42 -6 -1 -213 -192 -461 -426z"/>
<path d="M7654 2814 c-16 -22 -55 -71 -86 -110 -32 -39 -58 -77 -58 -84 0 -20
204 -412 315 -605 158 -275 373 -625 383 -625 7 1 34 37 151 196 l52 72 -244
383 c-134 211 -260 409 -280 441 l-36 56 37 -10 c95 -24 416 -114 729 -202
127 -36 234 -66 237 -66 14 0 208 272 200 279 -11 11 -321 94 -614 165 -230
56 -615 134 -706 143 -50 5 -52 5 -80 -33z"/>
<path d="M6580 1876 c-19 -13 -81 -47 -138 -76 -56 -30 -101 -59 -98 -64 3 -6
25 -56 49 -111 46 -104 150 -340 244 -555 91 -207 84 -289 -29 -343 -63 -31
-190 -50 -269 -41 l-56 6 -7 -133 c-4 -89 -3 -136 4 -143 16 -16 187 -20 287
-6 334 44 522 232 483 481 -12 81 -31 129 -210 534 -73 165 -149 338 -169 384
-20 47 -41 86 -46 87 -6 2 -26 -8 -45 -20z"/>
<path d="M2752 1643 c-6 -16 -28 -73 -48 -128 -35 -96 -62 -170 -137 -375 -20
-52 -51 -138 -70 -190 -19 -52 -67 -182 -106 -289 -39 -107 -70 -195 -68 -197
7 -7 299 -116 302 -112 2 1 101 269 220 593 120 325 219 595 222 601 2 6 -35
25 -84 44 -48 18 -112 43 -142 56 -68 30 -76 30 -89 -3z"/>
<path d="M4965 1354 c-60 -6 -125 -13 -142 -13 l-33 -1 -2 -360 -3 -360 -55
72 c-129 170 -333 412 -442 524 l-117 121 -137 12 c-75 6 -138 10 -141 8 -2
-2 0 -295 3 -651 l7 -646 160 2 159 3 -2 408 c0 224 1 407 4 407 3 0 53 -55
112 -122 127 -146 296 -371 423 -560 l92 -138 135 0 134 0 0 513 c0 627 -6
798 -29 796 -9 -1 -65 -8 -126 -15z"/>
</g>
</svg>
