<svg width="100" height="100" viewBox="0 0 100 100" fill="none" xmlns="http://www.w3.org/2000/svg">
<rect width="100" height="100" fill="#E2E8F0"/>
<path d="M46.4239 46.0013C46.3073 46.186 46.1516 46.3428 45.9679 46.4609C45.7842 46.579 45.5769 46.6555 45.3605 46.685C45.1143 46.72 44.87 46.7576 44.6257 46.7984C43.9434 46.9118 43.458 47.5125 43.458 48.2039V53.6639C43.458 54.0506 43.6116 54.4215 43.885 54.6949C44.1585 54.9683 44.5293 55.1219 44.916 55.1219H54.636C55.0227 55.1219 55.3935 54.9683 55.667 54.6949C55.9404 54.4215 56.094 54.0506 56.094 53.6639V48.2039C56.094 47.5125 55.608 46.9118 54.9263 46.7984C54.6818 46.7576 54.4369 46.7198 54.1915 46.685C53.9752 46.6554 53.768 46.5789 53.5844 46.4608C53.4009 46.3427 53.2453 46.1859 53.1288 46.0013L52.5961 45.1486C52.4765 44.9542 52.3118 44.7916 52.116 44.6744C51.9201 44.5572 51.699 44.4889 51.4712 44.4753C50.3419 44.4146 49.2101 44.4146 48.0808 44.4753C47.853 44.4889 47.6319 44.5572 47.4361 44.6744C47.2402 44.7916 47.0755 44.9542 46.9559 45.1486L46.4239 46.0013Z" stroke="#94A3B8" stroke-width="0.972" stroke-linecap="round" stroke-linejoin="round"/>
<path d="M52.692 50.2619C52.692 51.0353 52.3848 51.777 51.838 52.3239C51.2911 52.8707 50.5494 53.1779 49.776 53.1779C49.0027 53.1779 48.261 52.8707 47.7141 52.3239C47.1673 51.777 46.86 51.0353 46.86 50.2619C46.86 49.4886 47.1673 48.7469 47.7141 48.2C48.261 47.6532 49.0027 47.3459 49.776 47.3459C50.5494 47.3459 51.2911 47.6532 51.838 48.2C52.3848 48.7469 52.692 49.4886 52.692 50.2619ZM54.15 48.8039H54.1552V48.8091H54.15V48.8039Z" stroke="#94A3B8" stroke-width="0.972" stroke-linecap="round" stroke-linejoin="round"/>
</svg>
