<svg width="280" height="280" viewBox="0 0 280 280" fill="none" xmlns="http://www.w3.org/2000/svg">
<path d="M52.6631 127.029C52.6631 127.029 91.434 125.477 99.8125 61.7456C107.253 5.14629 172.631 30.9082 191.529 53.4701C216.01 82.6971 202.96 132.974 234.629 139.325C266.299 145.676 245.618 216.292 197.546 209.533C137.746 201.125 152.214 236.069 134.262 250.859C121.379 261.475 68.5515 251.256 66.7908 212.723C65.3092 180.297 51.6315 180.4 41.9366 176.723C27.9544 171.421 19.1441 133.017 52.6631 127.029Z" fill="#DEE9FF"/>
<path d="M184.462 197.807L146.371 160.168L138.828 167.801L176.92 205.44L184.462 197.807Z" fill="#699CFF"/>
<path d="M199.013 207.92L169.378 178.637C169.213 178.474 168.947 178.476 168.784 178.641L157.568 189.992C157.405 190.157 157.406 190.423 157.571 190.586L187.206 219.869C187.371 220.032 187.637 220.031 187.8 219.866L199.017 208.514C199.18 208.349 199.178 208.083 199.013 207.92Z" fill="#0E84E5"/>
<path d="M112.611 179.097C138.816 179.097 160.06 157.853 160.06 131.648C160.06 105.442 138.816 84.1982 112.611 84.1982C86.4051 84.1982 65.1613 105.442 65.1613 131.648C65.1613 157.853 86.4051 179.097 112.611 179.097Z" fill="#0E84E5"/>
<path d="M112.611 171.355C134.54 171.355 152.318 153.578 152.318 131.648C152.318 109.718 134.54 91.9407 112.611 91.9407C90.6811 91.9407 72.9036 109.718 72.9036 131.648C72.9036 153.578 90.6811 171.355 112.611 171.355Z" fill="#D4E5FF"/>
<path d="M122.76 212.418L135.196 230.379L117.081 234.011L104.757 216.069L122.76 212.418Z" fill="#418DF9"/>
<path d="M122.768 212.429L135.204 230.389L145.054 214.966L132.552 196.909L122.768 212.429Z" fill="#A2BDFF"/>
<path d="M122.76 212.418L132.661 196.922L114.58 200.369L104.67 216.087L122.76 212.418Z" fill="#0E84E5"/>
<path d="M103.081 221.927L121.831 219.022C121.881 219.015 121.928 218.991 121.963 218.954C121.998 218.917 122.021 218.87 122.026 218.819L122.76 212.418L104.671 216.087L102.824 221.624C102.812 221.662 102.809 221.702 102.817 221.741C102.824 221.781 102.842 221.817 102.867 221.848C102.893 221.878 102.926 221.901 102.964 221.915C103.001 221.929 103.041 221.934 103.081 221.927V221.927Z" fill="#699CFF"/>
<path d="M132.661 196.922L138.958 197.742C138.997 197.747 139.033 197.762 139.065 197.784C139.096 197.807 139.121 197.837 139.138 197.872C139.155 197.907 139.163 197.946 139.161 197.984C139.159 198.023 139.147 198.061 139.127 198.094L129.55 213.877C129.524 213.919 129.486 213.952 129.44 213.971C129.395 213.99 129.345 213.994 129.297 213.982L122.76 212.418L132.661 196.922Z" fill="#699CFF"/>
<path d="M114.579 200.369L132.7 196.896L134.375 195.052C134.408 195.015 134.429 194.97 134.434 194.921C134.439 194.872 134.429 194.823 134.405 194.78C134.381 194.738 134.344 194.704 134.3 194.683C134.255 194.663 134.205 194.657 134.157 194.667L117.688 197.949C117.652 197.956 117.618 197.972 117.589 197.995L114.579 200.369Z" fill="#699CFF"/>
<path d="M114.58 200.369L104.948 215.937L103.001 216.851C102.956 216.872 102.905 216.877 102.856 216.866C102.807 216.855 102.763 216.829 102.73 216.791C102.698 216.754 102.678 216.706 102.674 216.657C102.67 216.607 102.683 216.557 102.709 216.515L111.817 201.932C111.838 201.9 111.865 201.873 111.898 201.854L114.58 200.369Z" fill="#699CFF"/>
<path d="M183.849 88.1645L173.107 108.902L160.609 93.6076L171.388 72.9851L183.849 88.1645Z" fill="#418DF9"/>
<path d="M183.842 88.177L173.101 108.914L192.601 110.499L203.4 89.6507L183.842 88.177Z" fill="#A2BDFF"/>
<path d="M183.849 88.1646L203.443 89.7606L191.136 74.4053L171.328 72.9124L183.849 88.1646Z" fill="#699CFF"/>
<path d="M178.737 73.4707L191.16 88.76L188.671 93.923L194.117 94.3958L196.633 89.2059L183.648 73.8408L178.737 73.4707Z" fill="#418DF9"/>
<path d="M185.083 98.256C185.337 98.3877 185.738 98.1183 185.978 97.6543C186.219 97.1903 186.208 96.7074 185.953 96.5758C185.699 96.4441 185.298 96.7135 185.058 97.1775C184.818 97.6415 184.829 98.1243 185.083 98.256Z" fill="white"/>
<path d="M194.063 99.0758C194.317 99.2075 194.718 98.9381 194.959 98.4741C195.199 98.0101 195.188 97.5272 194.934 97.3955C194.679 97.2638 194.278 97.5332 194.038 97.9972C193.798 98.4612 193.809 98.9441 194.063 99.0758Z" fill="white"/>
<path d="M185.453 104.073L185.214 103.802C186.759 102.44 188.076 101.931 189.128 102.289C190.135 102.631 190.588 103.681 190.687 104.189L190.332 104.258C190.264 103.907 189.894 102.931 189.012 102.631C188.104 102.322 186.874 102.821 185.453 104.073Z" fill="white"/>
</svg>
